<?xml version="1.0" standalone="no"?>
<!DOCTYPE svg PUBLIC "-//W3C//DTD SVG 20010904//EN"
 "http://www.w3.org/TR/2001/REC-SVG-20010904/DTD/svg10.dtd">
<svg version="1.0" xmlns="http://www.w3.org/2000/svg"
 width="912.000000pt" height="912.000000pt" viewBox="0 0 912.000000 912.000000"
 preserveAspectRatio="xMidYMid meet">
<metadata>
Created by potrace 1.14, written by Peter Selinger 2001-2017
</metadata>
<g transform="translate(0.000000,912.000000) scale(0.100000,-0.100000)"
fill="#000000" stroke="none">
<path d="M5775 9079 c-90 -74 -308 -312 -471 -514 -27 -33 -54 -64 -60 -70 -6
-5 -60 -71 -120 -145 -116 -145 -236 -294 -260 -323 -24 -29 -426 -547 -487
-627 -31 -41 -60 -80 -65 -85 -12 -14 -421 -561 -479 -640 -24 -33 -50 -67
-56 -75 -13 -16 -414 -571 -516 -713 -35 -49 -64 -87 -66 -85 -2 2 -6 131 -9
288 -12 537 -18 785 -20 787 -6 6 -267 -408 -391 -619 -53 -90 -100 -170 -105
-178 -14 -24 -135 -240 -170 -303 -126 -232 -307 -611 -420 -887 -256 -617
-404 -1179 -457 -1735 -16 -167 -9 -658 12 -795 18 -118 35 -217 50 -292 44
-217 194 -593 309 -772 20 -31 36 -59 36 -62 0 -4 23 -39 52 -78 260 -356 498
-550 959 -786 240 -122 641 -264 837 -296 15 -2 38 -7 52 -10 14 -3 36 -8 50
-10 14 -2 34 -6 45 -8 11 -3 47 -8 80 -12 33 -3 62 -8 65 -9 16 -10 221 -20
395 -20 246 0 341 8 555 49 58 11 82 17 171 41 52 14 101 27 109 29 33 9 206
69 215 76 6 3 33 15 60 25 83 29 320 151 433 222 575 359 1017 884 1245 1483
37 95 102 314 112 373 3 18 8 39 10 47 2 8 7 33 10 55 3 23 7 51 10 63 24 129
26 522 1 637 -2 11 -7 40 -10 65 -15 115 -89 367 -144 490 -101 231 -157 319
-508 810 -181 254 -355 504 -389 562 -5 9 -50 83 -100 165 -108 178 -245 451
-316 628 -79 199 -177 509 -205 650 -2 11 -8 43 -14 70 -18 89 -20 99 -35 190
-28 175 -32 203 -40 310 -4 44 -8 86 -11 93 -21 67 -21 784 0 992 2 19 7 76
12 125 10 119 10 121 18 190 14 126 18 152 26 210 5 33 12 83 16 110 3 28 17
111 30 185 13 74 24 143 24 153 0 27 -21 20 -75 -24z"/>
</g>
</svg>
